# xmcd
#
# Track frame offsets:
#	150
#	15222
#	38390
#	55475
#	72767
#	88142
#	105380
#	127269
#	144101
#	158744
#
# Disc length: 2309 seconds
#
# Revision: 1
# Processed by: cddbd v1.5.2PL0 Copyright (c) Steve Scherf et al.
# Submitted via: audiograbber 1.83.01
#
DISCID=7509030a
DTITLE=сталатгс ватфгеустахиоу (BY DJ ZRAF) - апо йоуяекиа мужийо
DYEAR=2007
DGENRE=емтевмо
TTITLE0=та лустийа
TTITLE1=ецы ха леимы
TTITLE2=йаимоуяциа леяа
TTITLE3=ои пакиес ацапес
TTITLE4=ежуца
TTITLE5=евы сиыпес
TTITLE6=сам тг сйомг
TTITLE7=пыс ма с' то пы
TTITLE8=йяатаы тгм апостасг лоу
TTITLE9=лафи
EXTD=
EXTT0=
EXTT1=
EXTT2=
EXTT3=
EXTT4=
EXTT5=
EXTT6=
EXTT7=
EXTT8=
EXTT9=
PLAYORDER=
